<svg xmlns="http://www.w3.org/2000/svg" xmlns:xlink="http://www.w3.org/1999/xlink" width="206.184" height="145.534" viewBox="0 0 206.184 145.534"><defs><filter id="Path_1277" width="161.184" height="79.637" x="22.5" y="43.397" filterUnits="userSpaceOnUse"><feOffset dy="3" input="SourceAlpha"/><feGaussianBlur result="blur" stdDeviation="3"/><feFlood flood-opacity=".161"/><feComposite in2="blur" operator="in"/><feComposite in="SourceGraphic"/></filter><filter id="Path_1277-2" width="161.184" height="79.637" x="22.5" y="43.397" filterUnits="userSpaceOnUse"><feOffset dy="-17" input="SourceAlpha"/><feGaussianBlur result="blur-2" stdDeviation="3"/><feFlood flood-color="#fafafa" flood-opacity=".161" result="color"/><feComposite in="SourceGraphic" in2="blur-2" operator="out"/><feComposite in="color" operator="in"/><feComposite in2="SourceGraphic" operator="in"/></filter><filter id="Path_1278" width="143.184" height="61.637" x="28.634" y="49.397" filterUnits="userSpaceOnUse"><feOffset dy="3" input="SourceAlpha"/><feGaussianBlur result="blur-3" stdDeviation="3"/><feFlood flood-color="#fd3f3f" flood-opacity=".161" result="color-2"/><feComposite in="SourceGraphic" in2="blur-3" operator="out"/><feComposite in="color-2" operator="in"/><feComposite in2="SourceGraphic" operator="in"/></filter><filter id="Path_1275" width="206.184" height="124.637" x="0" y="20.897" filterUnits="userSpaceOnUse"><feOffset dy="3" input="SourceAlpha"/><feGaussianBlur result="blur-4" stdDeviation="10.5"/><feFlood flood-color="#574dcc" flood-opacity=".345"/><feComposite in2="blur-4" operator="in"/><feComposite in="SourceGraphic"/></filter><filter id="Path_1276" width="173.184" height="91.637" x="16.5" y="20.198" filterUnits="userSpaceOnUse"><feOffset dy="3" input="SourceAlpha"/><feGaussianBlur result="blur-5" stdDeviation="5"/><feFlood flood-opacity=".341"/><feComposite in2="blur-5" operator="in"/><feComposite in="SourceGraphic"/></filter><filter id="Path_1285" width="179.184" height="97.637" x="13.5" y="0" filterUnits="userSpaceOnUse"><feOffset dy="3" input="SourceAlpha"/><feGaussianBlur result="blur-6" stdDeviation="6"/><feFlood flood-opacity=".341"/><feComposite in2="blur-6" operator="in"/><feComposite in="SourceGraphic"/></filter></defs><g id="Group_322" data-name="Group 322" transform="translate(28.634 15)"><g data-type="innerShadowGroup"><g filter="url(#Path_1277)" transform="matrix(1, 0, 0, 1, -28.63, -15)" style="mix-blend-mode:multiply;isolation:isolate"><path id="Path_1277-3" fill="#3212fe" d="M1035.97,3585.1l71.495,30.927-71.495,30.71-71.689-30.71Z" data-name="Path 1277" transform="translate(-932.78 -3535.71)"/></g><g filter="url(#Path_1277-2)" transform="matrix(1, 0, 0, 1, -28.63, -15)" style="mix-blend-mode:multiply;isolation:isolate"><path id="Path_1277-4" fill="#fff" d="M1035.97,3585.1l71.495,30.927-71.495,30.71-71.689-30.71Z" data-name="Path 1277" transform="translate(-932.78 -3535.71)"/></g></g><g data-type="innerShadowGroup"><path id="Path_1278-2" fill="#3212fe" d="M1035.97,3585.1l71.495,30.927-71.495,30.71-71.689-30.71Z" data-name="Path 1278" transform="translate(-964.281 -3550.708)" style="mix-blend-mode:soft-light;isolation:isolate"/><g filter="url(#Path_1278)" transform="matrix(1, 0, 0, 1, -28.63, -15)" style="mix-blend-mode:soft-light;isolation:isolate"><path id="Path_1278-3" fill="#fff" d="M1035.97,3585.1l71.495,30.927-71.495,30.71-71.689-30.71Z" data-name="Path 1278" transform="translate(-935.65 -3535.71)"/></g></g><g id="Group_306" data-name="Group 306"><g filter="url(#Path_1275)" transform="translate(2.866) matrix(1, 0, 0, 1, -31.5, -15)"><path id="Path_1275-2" fill="#3a21ed" d="M1035.97,3585.1l71.495,30.927-71.495,30.71-71.689-30.71Z" data-name="Path 1275" transform="translate(-932.78 -3535.71)"/></g><g filter="url(#Path_1276)" transform="translate(2.866) matrix(1, 0, 0, 1, -31.5, -15)"><path id="Path_1276-2" fill="#4b35e6" d="M1035.97,3585.1l71.495,30.927-71.495,30.71-71.689-30.71Z" data-name="Path 1276" transform="translate(-932.78 -3552.91)"/></g><g filter="url(#Path_1285)" transform="translate(2.866) matrix(1, 0, 0, 1, -31.5, -15)"><path id="Path_1285-2" fill="#6f5dea" d="M1035.97,3585.1l71.495,30.927-71.495,30.71-71.689-30.71Z" data-name="Path 1285" transform="translate(-932.78 -3570.1)"/></g></g></g></svg>